<?xml version="1.0" encoding="UTF-8"?>
<svg width="605px" height="582px" viewBox="0 0 605 582" version="1.1" xmlns="http://www.w3.org/2000/svg" xmlns:xlink="http://www.w3.org/1999/xlink">
    <!-- Generator: Sketch 51.2 (57519) - http://www.bohemiancoding.com/sketch -->
    <title>Group</title>
    <desc>Created with Sketch.</desc>
    <defs>
        <polygon id="path-1" points="0.000100796813 0.235811881 50.1631466 0.235811881 50.1631466 50.4950495 0.000100796813 50.4950495"></polygon>
    </defs>
    <g id="Page-1" stroke="none" stroke-width="1" fill="none" fill-rule="evenodd">
        <g id="Group">
            <g id="connection-1" fill-rule="nonzero">
                <rect id="Rectangle-path" fill="#E5F7FD" transform="translate(229.704420, 220.336560) rotate(52.018481) translate(-229.704420, -220.336560) " x="111.405816" y="217.83659" width="236.597208" height="4.999941"></rect>
                <rect id="Rectangle-path" fill="#E5F7FD" transform="translate(191.279640, 354.021240) rotate(70.013956) translate(-191.279640, -354.021240) " x="188.779576" y="235.718207" width="5.0001282" height="236.606066"></rect>
                <rect id="Rectangle-path" fill="#E5F7FD" transform="translate(306.547918, 431.842928) rotate(88.018984) translate(-306.547918, -431.842928) " x="188.248194" y="429.342933" width="236.599447" height="4.99998832"></rect>
                <rect id="Rectangle-path" fill="#E5F7FD" transform="translate(416.198040, 346.239140) rotate(16.020947) translate(-416.198040, -346.239140) " x="297.893223" y="343.739038" width="236.609634" height="5.0002036"></rect>
                <rect id="Rectangle-path" fill="#E5F7FD" transform="translate(368.607240, 215.482590) rotate(34.014245) translate(-368.607240, -215.482590) " x="366.107236" y="97.1823788" width="5.00000892" height="236.600422"></rect>
                <circle id="Oval" fill="#00AFF0" cx="302.5" cy="314.6" r="92.2"></circle>
                <path d="M297.6,550.9 C294.3,550.8 291,550.7 287.7,550.5 L288,545.5 C291.2,545.7 294.5,545.8 297.7,545.9 L297.6,550.9 Z M307.5,550.9 L307.4,545.9 C310.6,545.8 313.9,545.7 317.1,545.5 L317.4,550.5 C314.2,550.7 310.9,550.9 307.5,550.9 Z M277.8,549.7 C274.5,549.4 271.2,548.9 267.9,548.5 L268.6,543.6 C271.8,544.1 275,544.5 278.3,544.8 L277.8,549.7 Z M327.4,549.7 L326.9,544.7 C330.1,544.4 333.4,544 336.6,543.5 L337.3,548.4 C334,548.9 330.7,549.4 327.4,549.7 Z M258.1,546.9 C254.8,546.3 251.6,545.6 248.4,544.8 L249.5,539.9 C252.6,540.6 255.8,541.3 259,541.9 L258.1,546.9 Z M347.1,546.8 L346.2,541.9 C349.4,541.3 352.6,540.6 355.7,539.9 L356.8,544.8 C353.6,545.5 350.3,546.2 347.1,546.8 Z M238.7,542.3 C235.5,541.4 232.3,540.5 229.2,539.4 L230.7,534.6 C233.8,535.6 236.9,536.5 240,537.4 L238.7,542.3 Z M366.4,542.3 L365.1,537.5 C368.2,536.6 371.3,535.7 374.4,534.7 L375.9,539.5 C372.8,540.4 369.6,541.4 366.4,542.3 Z M219.8,536.2 C216.7,535.1 213.6,533.8 210.5,532.5 L212.4,527.9 C215.4,529.2 218.4,530.4 221.5,531.5 L219.8,536.2 Z M385.3,536.1 L383.6,531.4 C386.6,530.3 389.6,529.1 392.6,527.8 L394.5,532.4 C391.5,533.8 388.4,535 385.3,536.1 Z M201.4,528.5 C198.4,527.1 195.4,525.6 192.5,524.1 L194.8,519.7 C197.7,521.2 200.6,522.7 203.5,524 L201.4,528.5 Z M403.6,528.4 L401.5,523.9 C404.4,522.5 407.3,521.1 410.2,519.6 L412.5,524 C409.6,525.5 406.6,527 403.6,528.4 Z M183.8,519.2 C180.9,517.5 178.1,515.8 175.3,514 L178,509.8 C180.7,511.5 183.5,513.2 186.3,514.9 L183.8,519.2 Z M421.2,519.2 L418.7,514.9 C421.5,513.3 424.3,511.6 427,509.9 L429.7,514.1 C426.9,515.8 424,517.6 421.2,519.2 Z M437.9,508.6 L435,504.5 C437.7,502.7 440.3,500.7 442.9,498.8 L445.9,502.8 C443.3,504.7 440.6,506.7 437.9,508.6 Z M167,508.6 C164.3,506.7 161.6,504.7 159,502.7 L162,498.7 C164.6,500.7 167.2,502.6 169.9,504.4 L167,508.6 Z M453.7,496.6 L450.5,492.7 C453,490.6 455.5,488.5 457.9,486.3 L461.2,490 C458.8,492.3 456.3,494.5 453.7,496.6 Z M151.2,496.5 C148.7,494.4 146.1,492.2 143.7,490 L147,486.3 C149.4,488.5 151.9,490.6 154.4,492.7 L151.2,496.5 Z M468.5,483.3 L465,479.7 C467.3,477.4 469.6,475.1 471.8,472.7 L475.4,476.1 C473.2,478.6 470.9,481 468.5,483.3 Z M136.4,483.2 C134.1,480.9 131.7,478.5 129.4,476.1 L133,472.7 C135.2,475.1 137.5,477.4 139.8,479.7 L136.4,483.2 Z M482.1,468.8 L478.3,465.5 C480.4,463.1 482.5,460.5 484.5,458 L488.4,461.1 C486.4,463.7 484.3,466.3 482.1,468.8 Z M122.8,468.7 C120.6,466.2 118.5,463.6 116.5,461 L120.4,457.9 C122.4,460.4 124.5,462.9 126.6,465.4 L122.8,468.7 Z M494.5,453.2 L490.5,450.3 C492.4,447.7 494.3,445 496.1,442.3 L500.3,445.1 C498.4,447.8 496.4,450.5 494.5,453.2 Z M110.4,453.2 C108.5,450.5 106.6,447.8 104.7,445.1 L108.9,442.3 C110.7,445 112.6,447.7 114.5,450.3 L110.4,453.2 Z M99.4,436.7 C97.7,433.9 96,431 94.4,428.1 L98.8,425.7 C100.4,428.5 102,431.4 103.7,434.1 L99.4,436.7 Z M505.5,436.6 L501.2,434 C502.9,431.2 504.5,428.4 506.1,425.6 L510.5,428 C508.9,430.9 507.3,433.8 505.5,436.6 Z M89.8,419.3 C88.3,416.4 86.9,413.3 85.6,410.3 L90.2,408.3 C91.5,411.2 92.9,414.2 94.3,417.1 L89.8,419.3 Z M515.1,419.2 L510.6,417 C512,414.1 513.4,411.1 514.8,408.2 L519.4,410.2 C518,413.2 516.6,416.2 515.1,419.2 Z M81.7,401.2 C80.5,398.1 79.3,395 78.2,391.9 L82.9,390.3 C84,393.3 85.1,396.4 86.3,399.4 L81.7,401.2 Z M523.3,401 L518.7,399.2 C519.9,396.2 521,393.1 522.1,390.1 L526.8,391.7 C525.6,394.8 524.5,397.9 523.3,401 Z M75.2,382.4 C74.2,379.2 73.3,376 72.5,372.8 L77.3,371.6 C78.1,374.7 79,377.9 79.9,381 L75.2,382.4 Z M529.8,382.2 L525,380.8 C525.9,377.7 526.8,374.6 527.6,371.4 L532.4,372.6 C531.7,375.8 530.8,379 529.8,382.2 Z M70.2,363.1 C69.5,359.9 68.9,356.6 68.3,353.3 L73.2,352.5 C73.7,355.7 74.4,358.9 75,362.1 L70.2,363.1 Z M534.7,362.9 L529.8,361.9 C530.5,358.7 531.1,355.5 531.6,352.3 L536.5,353.1 C536,356.4 535.4,359.7 534.7,362.9 Z M66.9,343.5 C66.5,340.2 66.1,336.9 65.9,333.6 L70.9,333.2 C71.2,336.4 71.5,339.7 71.9,342.9 L66.9,343.5 Z M538,343.3 L533,342.7 C533.4,339.5 533.7,336.3 534,333 L539,333.4 C538.8,336.7 538.4,340.1 538,343.3 Z M65.3,323.7 C65.2,320.4 65.1,317.1 65.1,313.8 L70.1,313.8 C70.1,317 70.2,320.3 70.3,323.5 L65.3,323.7 Z M539.7,323.5 L534.7,323.3 C534.8,320.1 534.9,316.8 534.9,313.6 L534.9,313.1 L539.9,313.1 L539.9,313.6 C539.9,316.9 539.8,320.2 539.7,323.5 Z M70.2,304.1 L65.2,303.9 C65.3,300.6 65.5,297.3 65.8,294 L70.8,294.4 C70.6,297.6 70.4,300.8 70.2,304.1 Z M534.7,303.4 C534.6,300.2 534.4,296.9 534.1,293.7 L539.1,293.3 C539.4,296.6 539.6,299.9 539.7,303.2 L534.7,303.4 Z M71.8,284.7 L66.8,284.1 C67.2,280.8 67.7,277.5 68.2,274.3 L73.1,275.1 C72.7,278.2 72.2,281.5 71.8,284.7 Z M533,284 C532.6,280.8 532.1,277.5 531.6,274.4 L536.5,273.6 C537,276.8 537.5,280.1 538,283.4 L533,284 Z M75,265.5 L70.1,264.5 C70.8,261.3 71.5,258 72.4,254.8 L77.2,256 C76.4,259.1 75.7,262.3 75,265.5 Z M529.8,264.8 C529.1,261.7 528.4,258.5 527.6,255.3 L532.4,254.1 C533.2,257.3 534,260.6 534.7,263.8 L529.8,264.8 Z M79.8,246.6 L75,245.2 C76,242 77,238.8 78.1,235.7 L82.8,237.3 C81.8,240.4 80.8,243.5 79.8,246.6 Z M524.9,246 C524,242.9 522.9,239.8 521.9,236.7 L526.6,235 C527.7,238.1 528.7,241.3 529.7,244.5 L524.9,246 Z M86.2,228.2 L81.5,226.4 C82.7,223.3 84,220.2 85.4,217.2 L90,219.2 C88.7,222.1 87.4,225.2 86.2,228.2 Z M518.5,227.6 C517.3,224.6 516,221.6 514.7,218.7 L519.3,216.7 C520.6,219.7 521.9,222.8 523.2,225.8 L518.5,227.6 Z M94.2,210.4 L89.7,208.2 C91.2,205.2 92.7,202.3 94.3,199.4 L98.7,201.8 C97.1,204.6 95.6,207.5 94.2,210.4 Z M510.5,209.9 C509.1,207 507.5,204.1 506,201.3 L510.4,198.9 C512,201.8 513.5,204.7 515,207.7 L510.5,209.9 Z M103.5,193.3 L99.2,190.7 C100.9,187.9 102.7,185.1 104.5,182.3 L108.7,185.1 C107,187.8 105.2,190.5 103.5,193.3 Z M501.1,192.9 C499.4,190.1 497.7,187.4 495.9,184.7 L500.1,181.9 C501.9,184.6 503.7,187.5 505.4,190.3 L501.1,192.9 Z M114.3,177.1 L110.3,174.2 C112.2,171.5 114.3,168.9 116.3,166.3 L120.2,169.4 C118.2,171.8 116.2,174.4 114.3,177.1 Z M490.3,176.7 C488.4,174.1 486.4,171.5 484.4,169 L488.3,165.9 C490.3,168.5 492.4,171.1 494.3,173.8 L490.3,176.7 Z M126.4,161.8 L122.6,158.5 C124.8,156 127,153.5 129.3,151.1 L132.9,154.5 C130.7,156.9 128.5,159.4 126.4,161.8 Z M478.2,161.5 C476.1,159.1 473.9,156.6 471.7,154.3 L475.3,150.9 C477.6,153.3 479.8,155.8 482,158.3 L478.2,161.5 Z M139.7,147.6 L136.2,144 C138.6,141.7 141,139.4 143.4,137.2 L146.7,140.9 C144.4,143.1 142.1,145.3 139.7,147.6 Z M464.9,147.3 C462.6,145 460.2,142.8 457.8,140.6 L461.1,136.9 C463.6,139.1 466,141.4 468.4,143.7 L464.9,147.3 Z M154.2,134.6 L151,130.8 C153.5,128.7 156.2,126.6 158.8,124.6 L161.8,128.6 C159.2,130.5 156.7,132.5 154.2,134.6 Z M450.4,134.3 C447.9,132.3 445.4,130.2 442.8,128.3 L445.8,124.3 C448.4,126.3 451.1,128.4 453.6,130.5 L450.4,134.3 Z M169.7,122.8 L166.8,118.7 C169.5,116.8 172.3,115 175.1,113.2 L177.8,117.4 C175,119.1 172.3,120.9 169.7,122.8 Z M434.9,122.5 C432.2,120.7 429.5,118.8 426.8,117.1 L429.5,112.9 C432.3,114.7 435.1,116.5 437.8,118.4 L434.9,122.5 Z M186.1,112.4 L183.6,108.1 C186.5,106.4 189.4,104.8 192.3,103.3 L194.6,107.7 C191.7,109.2 188.8,110.7 186.1,112.4 Z M418.4,112.1 C415.6,110.5 412.7,108.9 409.9,107.4 L412.2,103 C415.1,104.5 418.1,106.1 420.9,107.8 L418.4,112.1 Z M203.3,103.3 L201.2,98.8 C204.2,97.4 207.2,96 210.3,94.8 L212.2,99.4 C209.2,100.6 206.2,101.9 203.3,103.3 Z M401.2,103.1 C398.3,101.7 395.3,100.4 392.3,99.1 L394.2,94.5 C397.3,95.8 400.3,97.1 403.3,98.5 L401.2,103.1 Z M221.1,95.8 L219.3,91.1 C222.4,89.9 225.5,88.8 228.7,87.8 L230.3,92.6 C227.3,93.6 224.2,94.6 221.1,95.8 Z M383.2,95.5 C380.2,94.4 377.1,93.3 374,92.3 L375.5,87.5 C378.7,88.5 381.8,89.6 384.9,90.8 L383.2,95.5 Z M239.6,89.7 L238.3,84.9 C241.5,84 244.7,83.2 247.9,82.4 L249,87.3 C245.9,88.1 242.7,88.9 239.6,89.7 Z M364.6,89.6 C361.5,88.7 358.3,87.9 355.2,87.2 L356.3,82.3 C359.5,83 362.8,83.9 365.9,84.8 L364.6,89.6 Z M258.6,85.3 L257.7,80.4 C260.9,79.8 264.2,79.2 267.5,78.7 L268.2,83.6 C265,84.1 261.7,84.7 258.6,85.3 Z M345.7,85.2 C342.5,84.6 339.3,84.1 336.1,83.6 L336.8,78.7 C340.1,79.2 343.4,79.7 346.6,80.3 L345.7,85.2 Z M277.8,82.4 L277.3,77.4 C280.6,77.1 283.9,76.8 287.2,76.6 L287.5,81.6 C284.3,81.8 281,82.1 277.8,82.4 Z M326.4,82.4 C323.2,82.1 319.9,81.8 316.7,81.6 L317,76.6 C320.3,76.8 323.6,77.1 326.9,77.4 L326.4,82.4 Z M297.3,81.2 L297.2,76.2 C299,76.2 300.7,76.2 302.5,76.1 C304,76.1 305.6,76.1 307.1,76.1 L307,81.1 C305.5,81.1 303.9,81.1 302.4,81.1 C300.6,81.1 298.9,81.2 297.3,81.2 Z" id="Shape" fill="#E5F7FD"></path>
                <circle id="Oval" fill="#FFFFFF" opacity="0.08" cx="302.5" cy="314.6" r="78"></circle>
                <circle id="Oval" fill="#E5F7FD" cx="302.5" cy="66.9" r="66.9"></circle>
                <circle id="Oval" fill="#E5F7FD" cx="66.9" cy="238" r="66.9"></circle>
                <circle id="Oval" fill="#E5F7FD" cx="156.9" cy="515" r="66.9"></circle>
                <circle id="Oval" fill="#E5F7FD" cx="448.1" cy="515" r="66.9"></circle>
                <circle id="Oval" fill="#E5F7FD" cx="538.1" cy="238" r="66.9"></circle>
                <circle id="Oval" fill="#FFFFFF" opacity="0.08" cx="302.5" cy="314.6" r="68.2"></circle>
                <circle id="Oval" fill="#FFFFFF" opacity="0.08" cx="302.5" cy="314.6" r="55.5"></circle>
                <g id="XMLID_52_" transform="translate(272.000000, 35.000000)">
                    <g id="XMLID_191_" transform="translate(56.000000, 39.000000)" fill="#F684BC">
                        <circle id="Oval" cx="1" cy="1.9" r="1"></circle>
                    </g>
                    <g id="XMLID_190_" transform="translate(44.000000, 34.000000)" fill="#F684BC">
                        <circle id="Oval" cx="1.2" cy="1.3" r="1"></circle>
                    </g>
                    <g id="XMLID_189_" transform="translate(9.000000, 33.000000)" fill="#F684BC">
                        <circle id="Oval" cx="1.6" cy="1.4" r="1"></circle>
                    </g>
                    <g id="XMLID_188_" transform="translate(53.000000, 18.000000)" fill="#F684BC">
                        <circle id="Oval" cx="2.4" cy="2.3" r="1.6"></circle>
                    </g>
                    <g id="XMLID_187_" transform="translate(3.000000, 14.000000)" fill="#F684BC">
                        <circle id="Oval" cx="2.6" cy="2.2" r="1.9"></circle>
                    </g>
                    <g id="XMLID_50_" transform="translate(0.000000, 40.000000)" fill="#F684BC">
                        <circle id="Oval" cx="2" cy="1.9" r="1.6"></circle>
                    </g>
                    <g id="XMLID_868_" transform="translate(41.000000, 20.000000)" fill="#FFFFFF">
                        <path d="M4.5,3.8 C4.5,4.8 3.7,5.6 2.7,5.6 C1.7,5.6 0.9,4.8 0.9,3.8 L0.9,2.1 C0.9,1.1 1.7,0.3 2.7,0.3 C3.7,0.3 4.5,1.1 4.5,2.1 L4.5,3.8 Z" id="Shape"></path>
                    </g>
                    <g id="XMLID_867_" transform="translate(41.000000, 19.000000)" fill="#EE0979">
                        <path d="M2.8,7.6 C1.3,7.6 0,6.3 0,4.8 L0,3.1 C0,1.6 1.3,0.3 2.8,0.3 C4.4,0.3 5.6,1.6 5.6,3.1 L5.6,4.8 C5.6,6.3 4.3,7.6 2.8,7.6 Z M2.8,2.3 C2.4,2.3 2,2.6 2,3.1 L2,4.8 C2,5.2 2.3,5.6 2.8,5.6 C3.2,5.6 3.6,5.3 3.6,4.8 L3.6,3.1 C3.5,2.7 3.2,2.3 2.8,2.3 Z" id="XMLID_1526_"></path>
                    </g>
                    <g id="XMLID_866_" transform="translate(11.000000, 20.000000)" fill="#FFFFFF">
                        <path d="M4.4,3.8 C4.4,4.8 3.6,5.6 2.6,5.6 C1.6,5.6 0.8,4.8 0.8,3.8 L0.8,2.1 C0.8,1.1 1.6,0.3 2.6,0.3 C3.6,0.3 4.4,1.1 4.4,2.1 L4.4,3.8 Z" id="Shape"></path>
                    </g>
                    <g id="XMLID_865_" transform="translate(10.000000, 19.000000)" fill="#EE0979">
                        <path d="M3.6,7.6 C2.1,7.6 0.8,6.3 0.8,4.8 L0.8,3.1 C0.8,1.6 2.1,0.3 3.6,0.3 C5.2,0.3 6.4,1.6 6.4,3.1 L6.4,4.8 C6.4,6.3 5.1,7.6 3.6,7.6 Z M3.6,2.3 C3.2,2.3 2.8,2.6 2.8,3.1 L2.8,4.8 C2.8,5.2 3.1,5.6 3.6,5.6 C4,5.6 4.4,5.3 4.4,4.8 L4.4,3.1 C4.3,2.7 4,2.3 3.6,2.3 Z" id="XMLID_1523_"></path>
                    </g>
                    <g id="XMLID_864_" transform="translate(9.000000, 38.000000)" fill="#F684BC">
                        <path d="M38.9,22.3 L38.9,16.9 C38.9,7.9 30.3,0.6 19.9,0.6 C9.4,0.6 0.9,7.9 0.9,16.9 L0.9,22.3 L38.9,22.3 Z" id="Shape"></path>
                    </g>
                    <g id="XMLID_218_" transform="translate(8.000000, 50.000000)" fill="#EE0979">
                        <path d="M2.9,10.3 L0.8,10.3 L0.8,4.9 C0.8,3.5 1,2.1 1.4,0.8 L3.4,1.4 C3.1,2.6 2.9,3.8 2.9,5 L2.9,10.3 Z" id="XMLID_1522_"></path>
                    </g>
                    <g id="XMLID_217_" transform="translate(10.000000, 42.000000)" fill="#EE0979">
                        <path d="M2.7,6.3 L0.9,5.3 C1.9,3.6 3.1,2.1 4.6,0.7 L6,2.2 C4.6,3.4 3.5,4.8 2.7,6.3 Z" id="XMLID_1521_"></path>
                    </g>
                    <g id="XMLID_213_" transform="translate(17.000000, 37.000000)" fill="#EE0979">
                        <path d="M32,23.3 L29.9,23.3 L29.9,17.9 C29.9,9.5 21.8,2.6 11.9,2.6 C8.2,2.6 4.7,3.5 1.7,5.3 L0.6,3.5 C3.9,1.5 7.9,0.5 11.9,0.5 C23,0.5 32,8.3 32,17.9 L32,23.3 Z" id="XMLID_1520_"></path>
                    </g>
                    <g id="XMLID_126_" transform="translate(24.000000, 30.000000)" fill="#FFFFFF">
                        <path d="M7.8,14.4 L7.8,3.6 C7.8,1.9 6.4,0.5 4.7,0.5 L3.7,0.5 C2,0.5 0.6,1.9 0.6,3.6 L0.6,14.5 L4.2,17.3 L7.8,14.4 Z" id="Shape"></path>
                    </g>
                    <g id="XMLID_127_" transform="translate(23.000000, 29.000000)" fill="#EE0979">
                        <path d="M5.2,19.6 L0.6,15.9 L0.6,4.6 C0.6,2.3 2.4,0.5 4.7,0.5 L5.7,0.5 C8,0.5 9.8,2.3 9.8,4.6 L9.8,16 L5.2,19.6 Z M2.7,14.9 L5.2,16.9 L7.7,14.9 L7.7,4.6 C7.7,3.5 6.8,2.6 5.7,2.6 L4.7,2.6 C3.6,2.6 2.7,3.5 2.7,4.6 L2.7,14.9 Z" id="XMLID_1517_"></path>
                    </g>
                    <g id="XMLID_827_" transform="translate(15.000000, 8.000000)" fill="#FFFFFF">
                        <path d="M13.5,30.1 C6.1,30.1 0,24 0,16.6 L0,7.4 C0,-7.49400542e-15 6.1,0.1 13.5,0.1 C20.9,0.1 27,-0.1 27,7.4 L27,16.6 C27.1,24 21,30.1 13.5,30.1 Z" id="Shape"></path>
                    </g>
                    <g id="XMLID_855_" transform="translate(13.000000, 7.000000)" fill="#EE0979">
                        <path d="M15.5,32.1 C7.5,32.1 0.9,25.6 0.9,17.5 L0.9,8.3 C0.9,4.5 2.4,2.1 5.4,1 C7.9,0 11.4,0 15,0 L16,0 C19.6,0 23.1,0 25.6,1 C28.6,2.2 30.1,4.6 30.1,8.3 L30.1,17.5 C30.1,25.6 23.5,32.1 15.5,32.1 Z M14.6,2.2 C11.3,2.2 8.3,2.2 6.2,3 C4.7,3.6 3,4.7 3,8.4 L3,17.6 C3,24.5 8.6,30.1 15.5,30.1 C22.4,30.1 28,24.5 28,17.6 L28,8.4 C28,4.7 26.3,3.6 24.8,3 C22.6,2.2 19.4,2.2 15.9,2.2 L14.9,2.2 C14.9,2.2 14.7,2.2 14.6,2.2 Z" id="XMLID_1514_"></path>
                    </g>
                    <g id="XMLID_179_" transform="translate(11.000000, 1.000000)" fill="#F684BC">
                        <path d="M4.1,20.2 C2.3,20.2 0.9,18.7 0.9,17 L0.9,9.2 C0.9,6.5 3.1,4.3 5.8,4.3 C5.8,2.1 7.6,0.3 9.8,0.3 L29.5,0.3 C32.2,0.3 34.3,2.5 34.3,5.1 L34.3,16.8 C34.3,18.5 32.8,19.9 31.1,19.8 L31.1,12.1 C31.1,12.1 28.9,15.7 21.9,15.7 C13.4,15.7 7.9,11.5 7.9,11.5 C7.9,11.5 7.4,12.6 6.2,13.7 C5.2,14.6 4.1,14.3 4.1,14.3 L4.1,20.2 Z" id="Shape"></path>
                    </g>
                    <g id="XMLID_151_" transform="translate(10.000000, 0.000000)" fill="#EE0979">
                        <path d="M6.1,22.2 L5.1,22.2 C2.7,22.2 0.8,20.3 0.8,17.9 L0.8,10.1 C0.8,7.2 2.9,4.7 5.7,4.3 C6.1,2 8.2,0.2 10.6,0.2 L30.3,0.2 C33.5,0.2 36.2,2.8 36.2,6.1 L36.2,17.8 C36.2,18.9 35.7,20 34.9,20.7 C34.1,21.5 33,21.9 31.9,21.8 L30.9,21.7 L30.9,13 L33,13 L33,19.5 C33.2,19.4 33.4,19.3 33.5,19.2 C33.9,18.8 34.1,18.3 34.1,17.8 L34.1,6.1 C34.1,4 32.4,2.3 30.3,2.3 L10.6,2.3 C9,2.3 7.6,3.6 7.6,5.3 L7.6,6.3 L6.6,6.3 C4.5,6.3 2.8,8 2.8,10.1 L2.8,17.9 C2.8,18.7 3.3,19.5 4,19.9 L4,13.9 L5.3,14.3 C5.3,14.3 5.8,14.4 6.4,13.9 C7.3,13.1 7.8,12.1 7.8,12.1 L9.7,13 C9.7,13.1 9.1,14.4 7.8,15.5 C7.2,16 6.6,16.3 6.1,16.4 L6.1,22.2 Z" id="XMLID_1513_"></path>
                    </g>
                    <g id="XMLID_133_" transform="translate(16.000000, 10.000000)" fill="#EE0979">
                        <path d="M16.8,7.7 C16.8,7.7 16.8,7.7 16.8,7.7 C8.1,7.7 0.6,2.3 0.3,2 L1.5,0.3 C1.6,0.4 8.7,5.6 16.7,5.6 C16.7,5.6 16.7,5.6 16.7,5.6 C23,5.6 25.9,1.4 26,1.3 L27.7,2.4 C27.6,2.7 24.2,7.7 16.8,7.7 Z" id="XMLID_1512_"></path>
                    </g>
                    <g id="XMLID_4_" transform="translate(25.000000, 19.000000)" fill="#EE0979">
                        <polygon id="XMLID_1511_" points="4.6 8.9 0.6 8.9 0.6 0.5 2.6 0.5 2.6 6.9 4.6 6.9"></polygon>
                    </g>
                    <g id="XMLID_47_" transform="translate(20.000000, 20.000000)" fill="#EE0979">
                        <rect id="XMLID_1510_" x="0.5" y="0.1" width="3.2" height="2.1"></rect>
                    </g>
                    <g id="XMLID_46_" transform="translate(33.000000, 20.000000)" fill="#EE0979">
                        <rect id="XMLID_1509_" x="0.2" y="0.1" width="3.2" height="2.1"></rect>
                    </g>
                    <g id="XMLID_51_" transform="translate(25.000000, 31.000000)" fill="#EE0979">
                        <rect id="XMLID_1508_" x="0.1" y="0" width="6.8" height="2.1"></rect>
                    </g>
                </g>
                <g id="XMLID_61_" transform="translate(39.000000, 207.000000)">
                    <g id="XMLID_71_" transform="translate(43.000000, 44.000000)" fill="#F684BC">
                        <circle id="Oval" cx="1" cy="1.3" r="1"></circle>
                    </g>
                    <g id="XMLID_196_" transform="translate(8.000000, 40.000000)" fill="#F684BC">
                        <circle id="Oval" cx="1.3" cy="1.6" r="1"></circle>
                    </g>
                    <g id="XMLID_194_" transform="translate(51.000000, 24.000000)" fill="#F684BC">
                        <circle id="Oval" cx="1.7" cy="1.7" r="1.3"></circle>
                    </g>
                    <g id="XMLID_198_" transform="translate(1.000000, 52.000000)" fill="#F684BC">
                        <circle id="Oval" cx="1.6" cy="2" r="1.3"></circle>
                    </g>
                    <g id="XMLID_195_" transform="translate(50.000000, 50.000000)" fill="#F684BC">
                        <circle id="Oval" cx="2.7" cy="2.7" r="1.8"></circle>
                    </g>
                    <g id="XMLID_197_" transform="translate(0.000000, 19.000000)" fill="#F684BC">
                        <circle id="Oval" cx="2.6" cy="2.6" r="1.8"></circle>
                    </g>
                    <g id="XMLID_193_" transform="translate(8.000000, 0.000000)">
                        <g id="XMLID_211_" transform="translate(25.000000, 5.000000)" fill="#F684BC">
                            <path d="M18.1,33.4 L12.5,33.4 L0.9,33.4 L0.9,7.7 C0.9,3.9 4,0.8 7.8,0.8 C11.6,0.8 14.7,3.9 14.7,7.7 L14.7,30.1 C14.7,31.6 15.7,33.4 18.1,33.4 Z" id="Shape"></path>
                        </g>
                        <g id="XMLID_210_" transform="translate(24.000000, 4.000000)" fill="#EE0979">
                            <path d="M19.1,35.4 L0.9,35.4 L0.9,8.7 C0.9,4.3 4.4,0.8 8.8,0.8 C13.2,0.8 16.7,4.3 16.7,8.7 L16.7,31.1 C16.7,31.7 16.9,32.4 17.4,32.8 C17.8,33.2 18.4,33.5 19.2,33.5 L19.2,35.4 L19.1,35.4 Z M2.9,33.4 L15.4,33.4 C15,32.7 14.7,31.9 14.8,31.1 L14.8,8.7 C14.8,5.4 12.1,2.8 8.9,2.8 C5.6,2.8 3,5.5 3,8.7 L3,33.4 L2.9,33.4 Z" id="XMLID_1505_"></path>
                        </g>
                        <g id="XMLID_239_" transform="translate(2.000000, 0.000000)">
                            <g id="XMLID_209_" transform="translate(1.000000, 1.000000)" fill="#F684BC">
                                <path d="M30,22.9 L30,14.2 C30,6.8 23.9,0.7 16.5,0.7 L14.1,0.7 C6.7,0.7 0.6,6.8 0.6,14.2 L0.6,22.9 L30,22.9 Z" id="Shape"></path>
                            </g>
                            <g id="XMLID_208_">
                                <path d="M31,23.9 L31,15.2 C31,7.8 24.9,1.7 17.5,1.7 L15.1,1.7 C7.7,1.7 1.6,7.8 1.6,15.2 L1.6,23.9 L31,23.9 Z" id="XMLID_5_" fill="#F684BC"></path>
                                <path d="M32,24.9 L0.6,24.9 L0.6,15.2 C0.6,7.2 7.1,0.7 15.1,0.7 L17.5,0.7 C25.5,0.7 32,7.2 32,15.2 L32,24.9 Z M2.6,22.9 L30,22.9 L30,15.2 C30,8.3 24.4,2.7 17.5,2.7 L15.1,2.7 C8.2,2.7 2.6,8.3 2.6,15.2 L2.6,22.9 Z" id="XMLID_1501_" fill="#EE0979"></path>
                            </g>
                        </g>
                        <g id="XMLID_184_" transform="translate(31.000000, 22.000000)" fill="#FFFFFF">
                            <path d="M4.1,4 C4.1,5 3.3,5.8 2.3,5.8 C1.3,5.8 0.5,5 0.5,4 L0.5,2.3 C0.5,1.3 1.3,0.5 2.3,0.5 C3.3,0.5 4.1,1.3 4.1,2.3 L4.1,4 Z" id="Shape"></path>
                        </g>
                        <g id="XMLID_183_" transform="translate(30.000000, 21.000000)" fill="#EE0979">
                            <path d="M3.3,7.7 C1.8,7.7 0.6,6.5 0.6,5 L0.6,3.3 C0.6,1.8 1.8,0.6 3.3,0.6 C4.8,0.6 6,1.8 6,3.3 L6,5 C6.1,6.5 4.8,7.7 3.3,7.7 Z M3.3,2.5 C2.9,2.5 2.5,2.8 2.5,3.3 L2.5,5 C2.5,5.4 2.8,5.8 3.3,5.8 C3.7,5.8 4.1,5.5 4.1,5 L4.1,3.3 C4.1,2.9 3.7,2.5 3.3,2.5 Z" id="XMLID_1498_"></path>
                        </g>
                        <g id="XMLID_180_" transform="translate(1.000000, 22.000000)" fill="#FFFFFF">
                            <path d="M3.8,4 C3.8,5 3,5.8 2,5.8 C1,5.8 0.2,5 0.2,4 L0.2,2.3 C0.2,1.3 1,0.5 2,0.5 C3,0.5 3.8,1.3 3.8,2.3 L3.8,4 Z" id="Shape"></path>
                        </g>
                        <g id="XMLID_70_" transform="translate(0.000000, 21.000000)" fill="#EE0979">
                            <path d="M3.1,7.7 C1.6,7.7 0.4,6.5 0.4,5 L0.4,3.3 C0.4,1.8 1.6,0.6 3.1,0.6 C4.6,0.6 5.8,1.8 5.8,3.3 L5.8,5 C5.8,6.5 4.6,7.7 3.1,7.7 Z M3.1,2.5 C2.7,2.5 2.3,2.8 2.3,3.3 L2.3,5 C2.3,5.4 2.6,5.8 3.1,5.8 C3.5,5.8 3.9,5.5 3.9,5 L3.9,3.3 C3.8,2.9 3.5,2.5 3.1,2.5 Z" id="XMLID_1495_"></path>
                        </g>
                        <g id="XMLID_68_" transform="translate(2.000000, 41.000000)" fill="#E5F7FD">
                            <path d="M32.6,19.3 L32.6,16.7 C32.6,7.9 25.4,0.6 16.5,0.6 C7.7,0.6 0.4,7.8 0.4,16.7 L0.4,19.3 L32.6,19.3 Z" id="Shape"></path>
                        </g>
                        <g id="XMLID_214_" transform="translate(7.000000, 40.000000)" fill="#EE0979">
                            <path d="M28.6,20.3 L26.6,20.3 L26.6,17.7 C26.6,9.4 19.8,2.6 11.5,2.6 C7.9,2.6 4.4,3.9 1.7,6.3 L0.4,4.8 C3.5,2.1 7.4,0.7 11.5,0.7 C20.9,0.7 28.6,8.4 28.6,17.8 L28.6,20.3 Z" id="XMLID_1494_"></path>
                        </g>
                        <g id="XMLID_215_" transform="translate(3.000000, 47.000000)" fill="#EE0979">
                            <path d="M2.3,3.6 L0.5,2.7 C1,1.8 1.6,0.9 2.3,5.68434189e-14 L3.9,1.2 C3.3,2 2.7,2.8 2.3,3.6 Z" id="XMLID_1493_"></path>
                        </g>
                        <g id="XMLID_97_" transform="translate(1.000000, 53.000000)" fill="#EE0979">
                            <path d="M2.5,7.3 L0.5,7.3 L0.5,4.7 C0.5,3.4 0.7,2.1 1,0.8 L2.9,1.3 C2.6,2.4 2.5,3.6 2.5,4.7 L2.5,7.3 Z" id="XMLID_1492_"></path>
                        </g>
                        <g id="XMLID_206_" transform="translate(14.000000, 33.000000)" fill="#FFFFFF">
                            <path d="M4.3,15.1 C2.4,15.1 0.8,13.5 0.8,11.6 L0.8,4.2 C0.8,2.3 2.4,0.7 4.3,0.7 C6.2,0.7 7.8,2.3 7.8,4.2 L7.8,11.6 C7.8,13.5 6.2,15.1 4.3,15.1 Z" id="Shape"></path>
                        </g>
                        <g id="XMLID_205_" transform="translate(13.000000, 32.000000)" fill="#EE0979">
                            <path d="M5.3,17.1 C2.8,17.1 0.8,15.1 0.8,12.6 L0.8,5.2 C0.8,2.7 2.8,0.7 5.3,0.7 C7.8,0.7 9.8,2.7 9.8,5.2 L9.8,12.6 C9.8,15.1 7.8,17.1 5.3,17.1 Z M5.3,2.7 C3.9,2.7 2.8,3.8 2.8,5.2 L2.8,12.6 C2.8,14 3.9,15.1 5.3,15.1 C6.7,15.1 7.8,14 7.8,12.6 L7.8,5.2 C7.8,3.8 6.7,2.7 5.3,2.7 Z" id="XMLID_1489_"></path>
                        </g>
                        <g id="XMLID_204_" transform="translate(4.000000, 10.000000)" fill="#FFFFFF">
                            <path d="M27.8,8.4 L27.8,17.3 C27.8,24.7 21.7,30.8 14.3,30.8 C6.9,30.8 0.8,24.7 0.8,17.3 L0.8,8.4 C7.5,8.4 12.7,2.7 14.2,1 C14.4,0.7 14.8,0.7 15,1 C16.5,2.8 21.7,8.4 27.8,8.4 Z" id="Shape"></path>
                        </g>
                        <g id="XMLID_202_" transform="translate(3.000000, 9.000000)" fill="#EE0979">
                            <path d="M15.3,32.8 C7.3,32.8 0.8,26.3 0.8,18.3 L0.8,8.4 L1.8,8.4 C8,8.4 13,3 14.4,1.3 C14.7,1 15.1,0.7 15.6,0.7 C16.1,0.7 16.5,0.9 16.8,1.2 C18.2,2.9 23.2,8.3 28.8,8.3 L29.8,8.3 L29.8,18.2 C29.8,26.3 23.3,32.8 15.3,32.8 Z M2.8,10.4 L2.8,18.3 C2.8,25.2 8.4,30.8 15.3,30.8 C22.2,30.8 27.8,25.2 27.8,18.3 L27.8,10.4 C22.2,9.9 17.4,5.1 15.6,3.1 C13.8,5.1 8.9,9.9 2.8,10.4 Z" id="XMLID_1486_"></path>
                        </g>
                        <g id="XMLID_192_" transform="translate(26.000000, 1.000000)" fill="#F684BC">
                            <path d="M4.9,7 L1.1,2.7 C0.6,2.1 0.6,1.2 1.2,0.6 C1.8,0.1 2.7,0.1 3.3,0.7 L7.1,5 C7.6,5.6 7.6,6.5 7,7.1 C6.4,7.7 5.4,7.6 4.9,7 Z" id="Shape"></path>
                        </g>
                        <g id="XMLID_185_" transform="translate(25.000000, 0.000000)" fill="#EE0979">
                            <path d="M7,9.5 C6.9,9.5 6.9,9.5 6.8,9.5 C6.1,9.5 5.5,9.2 5.1,8.7 L1.3,4.4 C0.9,3.9 0.7,3.3 0.7,2.6 C0.7,1.9 1,1.3 1.5,0.9 C2.5,-2.87547763e-14 4.1,0.1 5,1.1 L8.8,5.4 C9.2,5.9 9.4,6.5 9.4,7.2 C9.4,7.9 9.1,8.5 8.6,8.9 C8.2,9.3 7.6,9.5 7,9.5 Z M6.7,7.3 C6.8,7.4 6.9,7.5 7,7.5 C7.1,7.5 7.2,7.5 7.3,7.4 C7.4,7.3 7.5,7.2 7.5,7.1 C7.5,7 7.5,6.9 7.4,6.8 L3.6,2.5 C3.4,2.3 3.1,2.3 2.9,2.5 C2.8,2.6 2.7,2.7 2.7,2.8 C2.7,2.9 2.7,3 2.8,3.1 L6.7,7.3 Z" id="XMLID_1483_"></path>
                        </g>
                        <g id="XMLID_54_" transform="translate(15.000000, 20.000000)" fill="#EE0979">
                            <polygon id="XMLID_1482_" points="4.6 9 0.7 9 0.7 0.9 2.7 0.9 2.7 7 3.6 7 4 6.4 5.6 7.5"></polygon>
                        </g>
                        <g id="XMLID_55_" transform="translate(9.000000, 20.000000)" fill="#EE0979">
                            <path d="M3.3,3.3 C2.4,3.3 1.5,2.9 0.9,2.3 L2.3,0.9 C2.8,1.4 3.7,1.4 4.3,0.9 L5.7,2.3 C5.1,3 4.2,3.3 3.3,3.3 Z" id="XMLID_1481_"></path>
                        </g>
                        <g id="XMLID_53_" transform="translate(21.000000, 20.000000)" fill="#EE0979">
                            <path d="M3.2,3.3 C2.3,3.3 1.4,2.9 0.8,2.3 L2.2,0.9 C2.7,1.4 3.6,1.4 4.2,0.9 L5.6,2.3 C4.9,3 4.1,3.3 3.2,3.3 Z" id="XMLID_1480_"></path>
                        </g>
                        <g id="XMLID_57_" transform="translate(13.000000, 32.000000)" fill="#EE0979">
                            <path d="M5.6,3.3 C3.8,3.3 2,2.8 0.7,1.9 L1.8,0.2 C3.8,1.5 7.4,1.5 9.4,0.2 L10.5,1.9 C9.2,2.8 7.4,3.3 5.6,3.3 Z" id="XMLID_1479_"></path>
                        </g>
                    </g>
                </g>
                <g id="XMLID_74_" transform="translate(129.000000, 484.000000)">
                    <g id="XMLID_79_" transform="translate(9.000000, 41.000000)" fill="#F684BC">
                        <path d="M35.3,20 L35.3,15 C35.3,6.8 27.5,0.1 17.9,0.1 C8.3,0.1 0.5,6.8 0.5,15 L0.5,19.9 L35.3,19.9 L35.3,20 Z" id="Shape"></path>
                    </g>
                    <g id="XMLID_75_" transform="translate(9.000000, 55.000000)" fill="#E5F7FD">
                        <g id="XMLID_82_">
                            <rect id="Rectangle-path" x="0.8" y="0.8" width="34.5" height="3.1"></rect>
                        </g>
                    </g>
                    <g id="XMLID_90_" transform="translate(51.000000, 42.000000)" fill="#F684BC">
                        <circle id="Oval" cx="1.6" cy="1.3" r="1"></circle>
                    </g>
                    <g id="XMLID_89_" transform="translate(40.000000, 37.000000)" fill="#F684BC">
                        <circle id="Oval" cx="1.8" cy="1.2" r="1"></circle>
                    </g>
                    <g id="XMLID_88_" transform="translate(9.000000, 36.000000)" fill="#F684BC">
                        <circle id="Oval" cx="1.3" cy="1.3" r="1"></circle>
                    </g>
                    <g id="XMLID_87_" transform="translate(49.000000, 23.000000)" fill="#F684BC">
                        <circle id="Oval" cx="2.2" cy="1.4" r="1.4"></circle>
                    </g>
                    <g id="XMLID_86_" transform="translate(3.000000, 18.000000)" fill="#F684BC">
                        <circle id="Oval" cx="2.7" cy="2.7" r="1.8"></circle>
                    </g>
                    <g id="XMLID_85_" transform="translate(0.000000, 42.000000)" fill="#F684BC">
                        <circle id="Oval" cx="2.3" cy="2.2" r="1.4"></circle>
                    </g>
                    <g id="XMLID_78_" transform="translate(8.000000, 52.000000)" fill="#EE0979">
                        <path d="M2.5,9 L0.6,9 L0.6,4 C0.6,2.7 0.8,1.4 1.1,0.2 L2.9,0.7 C2.6,1.8 2.4,2.9 2.4,4 L2.4,9 L2.5,9 Z" id="XMLID_1478_"></path>
                    </g>
                    <g id="XMLID_77_" transform="translate(10.000000, 44.000000)" fill="#EE0979">
                        <path d="M2.1,6 L0.5,5.1 C1.4,3.6 2.5,2.2 3.9,0.9 L5.1,2.3 C3.9,3.4 2.9,4.7 2.1,6 Z" id="XMLID_1477_"></path>
                    </g>
                    <g id="XMLID_76_" transform="translate(16.000000, 40.000000)" fill="#EE0979">
                        <path d="M29.3,21 L27.4,21 L27.4,16 C27.4,8.3 20,2 10.9,2 C7.5,2 4.3,2.9 1.5,4.5 L0.5,2.9 C3.6,1.1 7.1,0.1 10.8,0.1 C20.9,0.1 29.1,7.2 29.1,16 L29.1,21 L29.3,21 Z" id="XMLID_1476_"></path>
                    </g>
                    <g id="XMLID_123_" transform="translate(12.000000, 1.000000)" fill="#F684BC">
                        <path d="M2.7,30.4 L2.3,30.4 C1.4,30.4 0.7,29.7 0.7,28.8 L0.1,11.8 C0.1,10 0.9,9.5 2.4,8.4 L4.4,6.8 C-0.8,3.6 0.6,0.9 0.6,0.9 C3,4.5 16,1.8 23.5,3 C25.3,3.3 26.7,4.7 26.9,6.5 L27.1,7.9 C28.6,7.9 29.8,7.8 29.8,9.3 L29.2,28.8 C29.2,29.7 28.5,30.4 27.6,30.4 L2.7,30.4 Z" id="Shape"></path>
                    </g>
                    <g id="XMLID_121_" transform="translate(11.000000, 0.000000)" fill="#EE0979">
                        <path d="M28.7,32.3 L3.3,32.3 C1.9,32.3 0.8,31.2 0.8,29.8 L0.2,12.8 C0.2,10.6 1.5,8.6 3.5,7.6 C1,5.7 0.1,3.8 0.6,1.7 L0.8,1 L1.5,0.9 L2,0.9 L2.3,1.3 C3.5,3.1 9.2,2.9 14.2,2.7 C17.8,2.6 21.6,2.5 24.6,2.9 C26.7,3.2 28.4,5 28.7,7.2 L28.8,7.8 C29.6,7.8 30.4,7.9 31,8.5 C31.4,8.9 31.6,9.4 31.6,10.1 L31,29.7 C31.1,31.2 30,32.3 28.7,32.3 Z M2.6,3.8 C3,4.8 4.1,5.9 5.9,7 L7.3,7.9 L4.3,9.3 C2.9,10 2,11.3 2,12.7 L2.6,29.7 C2.6,30.1 2.9,30.3 3.2,30.3 L28.6,30.3 C28.9,30.3 29.2,30 29.2,29.7 L29.8,10.1 C29.8,9.9 29.8,9.8 29.8,9.8 C29.7,9.7 28.9,9.7 28.4,9.7 L27.3,9.7 L27,7.5 C26.8,6.1 25.8,5 24.4,4.8 C21.6,4.4 17.9,4.5 14.4,4.6 C9.5,4.8 5.2,5 2.6,3.8 Z" id="XMLID_1473_"></path>
                    </g>
                    <g id="XMLID_118_" transform="translate(23.000000, 33.000000)" fill="#FFFFFF">
                        <path d="M3.7,15 L3.5,15 C1.7,15 0.2,13.5 0.2,11.7 L0.2,4.2 C0.2,2.4 1.7,0.9 3.5,0.9 L3.7,0.9 C5.5,0.9 7,2.4 7,4.2 L7,11.7 C7,13.5 5.5,15 3.7,15 Z" id="Shape"></path>
                    </g>
                    <g id="XMLID_117_" transform="translate(22.000000, 33.000000)" fill="#EE0979">
                        <path d="M4.7,15.9 L4.5,15.9 C2.2,15.9 0.3,14 0.3,11.7 L0.3,4.2 C0.3,1.9 2.2,-1.13686838e-13 4.5,-1.13686838e-13 L4.7,-1.13686838e-13 C7,-1.13686838e-13 8.9,1.9 8.9,4.2 L8.9,11.7 C9,14 7.1,15.9 4.7,15.9 Z M4.5,1.9 C3.2,1.9 2.2,3 2.2,4.2 L2.2,11.7 C2.2,13 3.3,14 4.5,14 L4.7,14 C6,14 7.1,12.9 7.1,11.7 L7.1,4.2 C7.1,2.9 6,1.9 4.7,1.9 L4.5,1.9 Z" id="XMLID_1470_"></path>
                    </g>
                    <g id="XMLID_116_" transform="translate(13.000000, 7.000000)" fill="#FFFFFF">
                        <path d="M13.9,34.3 C6.8,34.3 0.9,28.5 0.9,21.3 L0.9,12.5 C0.9,5.4 6.7,0.8 13.9,0.8 C21,0.8 26.9,5.3 26.9,12.5 L26.9,21.3 C26.9,28.4 21,34.3 13.9,34.3 Z" id="Shape"></path>
                    </g>
                    <g id="XMLID_113_" transform="translate(13.000000, 6.000000)" fill="#EE0979">
                        <path d="M13.9,36.2 C6.2,36.2 0,30 0,22.3 L0,13.5 C0,6.2 5.9,0.9 13.9,0.9 C22,0.9 27.8,6.2 27.8,13.5 L27.8,22.3 C27.8,30 21.6,36.2 13.9,36.2 Z M13.9,2.7 C6.9,2.7 1.9,7.2 1.9,13.4 L1.9,22.2 C1.9,28.8 7.3,34.2 13.9,34.2 C20.5,34.2 25.9,28.8 25.9,22.2 L25.9,13.4 C25.9,7.3 20.9,2.7 13.9,2.7 Z" id="XMLID_1467_"></path>
                    </g>
                    <g id="XMLID_110_" transform="translate(12.000000, 5.000000)" fill="#F684BC">
                        <path d="M28.6,5.8 L25.2,4.4 C25.5,4.1 25,3.6 25.2,3.1 C26.3,-0.1 20.1,1.2 20.1,1.2 C20.1,1.2 12.9,-1.8 4.7,4.4 L0.6,10.5 C0.6,10.5 12.5,13.9 22,5.5 C22.1,8.1 22.7,11.8 28.6,13 L28.6,8.3 L28.6,5.8 Z" id="Shape"></path>
                    </g>
                    <g id="XMLID_108_" transform="translate(11.000000, 9.000000)" fill="#EE0979">
                        <path d="M29.9,10.1 C24.5,9 22.8,5.8 22.2,3.2 C12.6,10.4 1.4,7.2 0.9,7 L1.4,5.2 C1.5,5.2 13.1,8.5 22.1,0.8 L22.5,0.4 L23.2,0.6 C23.6,0.8 23.8,1.1 23.8,1.5 C23.9,3.9 25.1,7.1 30.2,8.1 L29.9,10.1 Z" id="XMLID_1466_"></path>
                    </g>
                    <g id="XMLID_107_" transform="translate(13.000000, 17.000000)" fill="#EE0979">
                        <path d="M9.9,10.8 L3.5,10.8 C1.6,10.8 0,9.3 0,7.3 L0,4.4 C0,2.5 1.5,0.9 3.5,0.9 L9.9,0.9 C11.8,0.9 13.4,2.4 13.4,4.4 L13.4,7.3 C13.4,9.3 11.8,10.8 9.9,10.8 Z M3.5,2.9 C2.6,2.9 1.9,3.6 1.9,4.5 L1.9,7.4 C1.9,8.3 2.6,9 3.5,9 L9.9,9 C10.8,9 11.5,8.3 11.5,7.4 L11.5,4.5 C11.5,3.6 10.8,2.9 9.9,2.9 L3.5,2.9 Z" id="XMLID_1463_"></path>
                    </g>
                    <g id="XMLID_106_" transform="translate(27.000000, 17.000000)" fill="#EE0979">
                        <path d="M10.2,10.8 L3.8,10.8 C1.9,10.8 0.3,9.3 0.3,7.3 L0.3,4.4 C0.3,2.5 1.8,0.9 3.8,0.9 L10.2,0.9 C12.1,0.9 13.7,2.4 13.7,4.4 L13.7,7.3 C13.7,9.3 12.1,10.8 10.2,10.8 Z M3.8,2.9 C2.9,2.9 2.2,3.6 2.2,4.5 L2.2,7.4 C2.2,8.3 2.9,9 3.8,9 L10.2,9 C11.1,9 11.8,8.3 11.8,7.4 L11.8,4.5 C11.8,3.6 11.1,2.9 10.2,2.9 L3.8,2.9 Z" id="XMLID_1460_"></path>
                    </g>
                    <g id="XMLID_103_" transform="translate(25.000000, 22.000000)" fill="#EE0979">
                        <rect id="XMLID_1459_" x="0.4" y="0" width="2.5" height="1.9"></rect>
                    </g>
                    <g id="XMLID_58_" transform="translate(18.000000, 22.000000)" fill="#EE0979">
                        <rect id="XMLID_1458_" x="0.4" y="0" width="2.6" height="1.9"></rect>
                    </g>
                    <g id="XMLID_56_" transform="translate(32.000000, 22.000000)" fill="#EE0979">
                        <rect id="XMLID_1457_" x="0.7" y="0" width="2.6" height="1.9"></rect>
                    </g>
                    <g id="XMLID_60_" transform="translate(26.000000, 23.000000)" fill="#EE0979">
                        <polygon id="XMLID_1456_" points="4 9.9 0.1 9.9 0.1 0.9 1.9 0.9 1.9 8 4 8"></polygon>
                    </g>
                    <g id="XMLID_62_" transform="translate(23.000000, 33.000000)" fill="#EE0979">
                        <polygon id="XMLID_1455_" points="7.9 4 0.2 4 0.2 2.1 7.2 2.1 9.1 0.6 10.3 2"></polygon>
                    </g>
                </g>
                <g id="XMLID_248_" transform="translate(421.000000, 484.000000)">
                    <g id="XMLID_225_" transform="translate(8.000000, 1.000000)" fill="#F684BC">
                        <path d="M35.5,25.3 L35.5,18.1 C35.5,8.5 27.7,0.7 18.1,0.7 C8.5,0.7 0.7,8.5 0.7,18.1 L0.7,31.7 L29,31.7 C32.6,31.7 35.5,28.8 35.5,25.3 Z" id="Shape"></path>
                    </g>
                    <g id="XMLID_262_" transform="translate(43.000000, 44.000000)" fill="#F684BC">
                        <circle id="Oval" cx="1.3" cy="1.5" r="1"></circle>
                    </g>
                    <g id="XMLID_261_" transform="translate(8.000000, 40.000000)" fill="#F684BC">
                        <circle id="Oval" cx="1" cy="1.7" r="1"></circle>
                    </g>
                    <g id="XMLID_260_" transform="translate(51.000000, 24.000000)" fill="#F684BC">
                        <circle id="Oval" cx="2.1" cy="1.5" r="1.3"></circle>
                    </g>
                    <g id="XMLID_259_" transform="translate(0.000000, 53.000000)" fill="#F684BC">
                        <circle id="Oval" cx="2.1" cy="1.3" r="1.3"></circle>
                    </g>
                    <g id="XMLID_258_" transform="translate(51.000000, 51.000000)" fill="#F684BC">
                        <circle id="Oval" cx="2.1" cy="2" r="1.8"></circle>
                    </g>
                    <g id="XMLID_257_" transform="translate(0.000000, 19.000000)" fill="#F684BC">
                        <circle id="Oval" cx="2.1" cy="2.3" r="1.8"></circle>
                    </g>
                    <g id="XMLID_247_" transform="translate(10.000000, 41.000000)" fill="#F684BC">
                        <path d="M32.9,19.7 L32.9,17 C32.9,8 25.5,0.6 16.5,0.6 C7.5,0.6 0.1,8 0.1,17 L0.1,19.7 L32.9,19.7 Z" id="Shape"></path>
                    </g>
                    <g id="XMLID_246_" transform="translate(15.000000, 40.000000)" fill="#EE0979">
                        <path d="M28.9,20.7 L26.9,20.7 L26.9,18 C26.9,9.5 20,2.7 11.6,2.7 C7.9,2.7 4.4,4 1.6,6.4 L0.3,4.9 C3.5,2.2 7.5,0.7 11.6,0.7 C21.2,0.7 29,8.5 29,18.1 L29,20.7 L28.9,20.7 Z" id="XMLID_1366_"></path>
                    </g>
                    <g id="XMLID_245_" transform="translate(11.000000, 47.000000)" fill="#EE0979">
                        <path d="M2,3.8 L0.2,2.8 C0.7,1.8 1.3,0.9 2,0.1 L3.6,1.4 C3,2.2 2.4,3 2,3.8 Z" id="XMLID_1365_"></path>
                    </g>
                    <g id="XMLID_244_" transform="translate(9.000000, 54.000000)" fill="#EE0979">
                        <path d="M2.2,6.7 L0.2,6.7 L0.2,4 C0.2,2.7 0.4,1.3 0.7,0 L2.7,0.5 C2.4,1.6 2.3,2.8 2.3,4 L2.3,6.7 L2.2,6.7 Z" id="XMLID_1364_"></path>
                    </g>
                    <g id="XMLID_240_" transform="translate(22.000000, 33.000000)" fill="#FFFFFF">
                        <path d="M4.2,15.3 C2.2,15.3 0.6,13.7 0.6,11.7 L0.6,4.2 C0.6,2.2 2.2,0.6 4.2,0.6 C6.2,0.6 7.8,2.2 7.8,4.2 L7.8,11.7 C7.8,13.7 6.2,15.3 4.2,15.3 Z" id="Shape"></path>
                    </g>
                    <g id="XMLID_238_" transform="translate(21.000000, 32.000000)" fill="#EE0979">
                        <path d="M5.2,17.3 C2.7,17.3 0.6,15.2 0.6,12.7 L0.6,5.2 C0.6,2.7 2.7,0.6 5.2,0.6 C7.7,0.6 9.8,2.7 9.8,5.2 L9.8,12.7 C9.8,15.2 7.8,17.3 5.2,17.3 Z M5.2,2.6 C3.8,2.6 2.6,3.7 2.6,5.2 L2.6,12.7 C2.6,14.1 3.7,15.3 5.2,15.3 C6.7,15.3 7.8,14.2 7.8,12.7 L7.8,5.2 C7.8,3.8 6.6,2.6 5.2,2.6 Z" id="XMLID_1361_"></path>
                    </g>
                    <g id="XMLID_222_" transform="translate(12.000000, 11.000000)" fill="#FFFFFF">
                        <path d="M28,0.5 L28,15.6 C28,23.2 21.8,29.4 14.2,29.4 C6.6,29.4 0.4,23.2 0.4,15.6 L0.4,0.5 L28,0.5 Z" id="Shape"></path>
                    </g>
                    <g id="XMLID_223_" transform="translate(11.000000, 15.000000)" fill="#EE0979">
                        <path d="M15.2,26.3 C7.1,26.3 0.4,19.7 0.4,11.5 L0.4,3.2 L2.4,3.2 L2.4,11.5 C2.4,18.5 8.1,24.2 15.1,24.2 C22.1,24.2 27.8,18.5 27.8,11.5 L27.8,0.5 L29.8,0.5 L29.8,11.5 C30,19.7 23.4,26.3 15.2,26.3 Z" id="XMLID_1360_"></path>
                    </g>
                    <g id="XMLID_236_" transform="translate(8.000000, 9.000000)" fill="#F684BC">
                        <path d="M33.7,10.4 L28.7,10.4 C24.1,10.5 18.2,5.4 18.2,2.4 L18.2,4.9 L18.2,11.4 C18.2,21.1 10.4,28.9 0.7,29 L1.4,10.2 L4,1.6 L32.6,0.9 L33.5,5 L33.5,10.4 L33.7,10.4 Z" id="Shape"></path>
                    </g>
                    <g id="XMLID_235_" transform="translate(8.000000, 8.000000)" fill="#EE0979">
                        <path d="M0.7,30.8 L0.7,28.8 C9.8,28.8 17.2,21.3 17.2,12.2 L17.2,0.8 L19.2,0.8 C19.2,6 23.5,10.3 28.7,10.3 L33.7,10.3 L33.7,12.3 L28.7,12.3 C24.8,12.3 21.3,10.3 19.2,7.3 L19.2,12.2 C19.2,22.5 10.9,30.8 0.7,30.8 Z" id="XMLID_1359_"></path>
                    </g>
                    <g id="XMLID_237_" transform="translate(7.000000, 0.000000)" fill="#EE0979">
                        <path d="M2.7,38.7 L0.7,38.7 L0.7,19.1 C0.7,8.9 9,0.7 19.1,0.7 C29.3,0.7 37.5,9 37.5,19.1 L37.5,26.3 C37.5,29.7 35.2,32.7 31.8,33.6 L31.3,31.6 C33.7,31 35.4,28.8 35.4,26.3 L35.4,19.1 C35.4,10.1 28.1,2.7 19,2.7 C10,2.7 2.6,10 2.6,19.1 L2.6,38.7 L2.7,38.7 Z" id="XMLID_1358_"></path>
                    </g>
                    <g id="XMLID_249_" transform="translate(28.000000, 22.000000)" fill="#EE0979">
                        <rect id="XMLID_1357_" x="0.9" y="0.3" width="5.6" height="2"></rect>
                    </g>
                    <g id="XMLID_224_" transform="translate(26.000000, 25.000000)" fill="#EE0979">
                        <polygon id="XMLID_1356_" points="3.3 5.7 0.2 5.7 0.2 3.7 1.2 3.7 1.2 0.8 3.3 0.8"></polygon>
                    </g>
                    <g id="XMLID_250_" transform="translate(22.000000, 33.000000)" fill="#EE0979">
                        <path d="M4.9,3.4 L4.1,3.4 C3,3.4 1.9,3 1,2.2 L0.8,2 L2.1,0.5 L2.3,0.7 C2.8,1.1 3.4,1.4 4.1,1.4 L4.9,1.4 C5.6,1.4 6.3,1.1 6.8,0.6 L8.2,2 C7.4,2.9 6.2,3.4 4.9,3.4 Z" id="XMLID_1355_"></path>
                    </g>
                    <g id="XMLID_233_" transform="translate(8.000000, 17.000000)" fill="#EE0979">
                        <path d="M1.2,17.6 L0.4,15.7 C6.5,13.1 10.4,7.1 10.4,0.5 L12.4,0.5 C12.5,8 8,14.7 1.2,17.6 Z" id="XMLID_1354_"></path>
                    </g>
                    <g id="XMLID_251_" transform="translate(7.000000, 14.000000)" fill="#EE0979">
                        <path d="M1.8,15.8 L0.6,14.2 C4.8,11.1 7.3,6.1 7.3,0.9 L9.3,0.9 C9.4,6.7 6.6,12.3 1.8,15.8 Z" id="XMLID_1353_"></path>
                    </g>
                </g>
                <g id="XMLID_503_" transform="translate(510.000000, 207.000000)">
                    <g id="XMLID_558_" transform="translate(11.000000, 27.000000)" fill="#F684BC">
                        <path d="M1.7,0 L1.1,2.3 C-0.3,7.2 0.3,12.5 2.8,17 L5.1,21.2 L14.5,19.3 C14.5,19.3 16.7,5 15.9,5.3 C15.1,5.6 1.7,0 1.7,0 Z" id="Shape"></path>
                    </g>
                    <g id="XMLID_557_" transform="translate(10.000000, 25.000000)" fill="#EE0979">
                        <path d="M5.4,24.3 L2.8,19.4 C0.2,14.6 -0.4,9.2 1.1,4 L2,0.6 L3.1,1 C8.9,3.4 15.4,5.9 16.7,6.2 L17,6.1 L17.5,6.5 C18,6.9 18.5,7.3 16.4,21.4 L16.3,22.1 L5.4,24.3 Z M3.4,3.4 L3.1,4.5 C1.8,9.2 2.4,14.1 4.7,18.4 L6.6,21.9 L14.6,20.3 C15.4,15.3 16,9.9 16.1,8.1 C14.5,7.8 11.2,6.6 3.4,3.4 Z" id="XMLID_1159_"></path>
                    </g>
                    <g id="XMLID_561_" transform="translate(26.000000, 27.000000)" fill="#F684BC">
                        <path d="M14.8,0 L15.4,2.3 C16.8,7.2 16.2,12.5 13.7,17 L11.4,21.2 L2,19.3 C2,19.3 -0.2,5 0.6,5.3 C1.4,5.6 14.8,0 14.8,0 Z" id="Shape"></path>
                    </g>
                    <g id="XMLID_560_" transform="translate(25.000000, 25.000000)" fill="#EE0979">
                        <path d="M13.1,24.3 L2.2,22.1 L2.1,21.4 C-0.1,7.3 0.5,6.9 1,6.5 L1.5,6.1 L1.9,6.2 C3.2,6 9.7,3.4 15.5,1 L16.6,0.6 L17.5,4 C18.9,9.2 18.3,14.7 15.8,19.4 L13.1,24.3 Z M4,20.4 L12,22 L13.9,18.5 C16.2,14.2 16.8,9.3 15.5,4.6 L15.2,3.5 C7.3,6.8 4,7.9 2.6,8.3 C2.6,9.9 3.2,15.3 4,20.4 Z" id="XMLID_1156_"></path>
                    </g>
                    <g id="XMLID_508_" transform="translate(10.000000, 41.000000)" fill="#E5F7FD">
                        <path d="M33.5,19.8 L33.5,17.1 C33.5,7.9 26,0.4 16.8,0.4 C7.6,0.4 0.1,7.9 0.1,17.1 L0.1,19.8 L33.5,19.8 Z" id="Shape"></path>
                    </g>
                    <g id="XMLID_527_" transform="translate(11.000000, 48.000000)" fill="#F684BC">
                        <path d="M0.2,4.3 L0.2,12.8 L2,12.8 L2,0.8 C1.3,1.8 0.7,3 0.2,4.3 Z" id="Shape"></path>
                    </g>
                    <g id="XMLID_529_" transform="translate(14.000000, 45.000000)" fill="#F684BC">
                        <path d="M0.8,1.6 L0.8,15.8 L2.6,15.8 L2.6,0 C1.9,0.5 1.3,1 0.8,1.6 Z" id="Shape"></path>
                    </g>
                    <g id="XMLID_519_" transform="translate(18.000000, 43.000000)" fill="#F684BC">
                        <rect id="Rectangle-path" x="0.3" y="0.3" width="1.8" height="17.5"></rect>
                    </g>
                    <g id="XMLID_520_" transform="translate(21.000000, 44.000000)" fill="#F684BC">
                        <rect id="Rectangle-path" x="0.8" y="0.6" width="1.8" height="16.2"></rect>
                    </g>
                    <g id="XMLID_521_" transform="translate(25.000000, 44.000000)" fill="#F684BC">
                        <rect id="Rectangle-path" x="0.4" y="0.6" width="1.8" height="16.2"></rect>
                    </g>
                    <g id="XMLID_522_" transform="translate(28.000000, 44.000000)" fill="#F684BC">
                        <rect id="Rectangle-path" x="0.9" y="0.6" width="1.8" height="16.2"></rect>
                    </g>
                    <g id="XMLID_524_" transform="translate(32.000000, 42.000000)" fill="#F684BC">
                        <rect id="Rectangle-path" x="0.4" y="0.7" width="1.8" height="18.1"></rect>
                    </g>
                    <g id="XMLID_525_" transform="translate(36.000000, 44.000000)" fill="#F684BC">
                        <rect id="Rectangle-path" x="0" y="0.6" width="1.8" height="16.2"></rect>
                    </g>
                    <g id="XMLID_526_" transform="translate(39.000000, 48.000000)" fill="#F684BC">
                        <rect id="Rectangle-path" x="0.5" y="0.1" width="1.8" height="12.7"></rect>
                    </g>
                    <g id="XMLID_551_" transform="translate(40.000000, 21.000000)" fill="#FFFFFF">
                        <path d="M3.8,4.5 C3.8,5.5 3,6.3 2,6.3 C1,6.3 0.2,5.5 0.2,4.5 L0.2,2.7 C0.2,1.7 1,0.9 2,0.9 C3,0.9 3.8,1.7 3.8,2.7 L3.8,4.5 Z" id="Shape"></path>
                    </g>
                    <g id="XMLID_550_" transform="translate(39.000000, 20.000000)" fill="#EE0979">
                        <path d="M3,8.3 C1.4,8.3 0.1,7 0.1,5.4 L0.1,3.6 C0.1,2 1.4,0.7 3,0.7 C4.6,0.7 5.9,2 5.9,3.6 L5.9,5.4 C5.8,7.1 4.5,8.3 3,8.3 Z M3,2.9 C2.6,2.9 2.2,3.3 2.2,3.7 L2.2,5.5 C2.2,5.9 2.6,6.3 3,6.3 C3.4,6.3 3.8,5.9 3.8,5.5 L3.8,3.7 C3.7,3.3 3.4,2.9 3,2.9 Z" id="XMLID_1153_"></path>
                    </g>
                    <g id="XMLID_556_" transform="translate(9.000000, 21.000000)" fill="#FFFFFF">
                        <path d="M4.4,4.5 C4.4,5.5 3.6,6.3 2.6,6.3 C1.6,6.3 0.8,5.5 0.8,4.5 L0.8,2.7 C0.8,1.7 1.6,0.9 2.6,0.9 C3.6,0.9 4.4,1.7 4.4,2.7 L4.4,4.5 Z" id="Shape"></path>
                    </g>
                    <g id="XMLID_498_" transform="translate(8.000000, 20.000000)" fill="#EE0979">
                        <path d="M3.6,8.3 C2,8.3 0.7,7 0.7,5.4 L0.7,3.6 C0.7,2 2,0.7 3.6,0.7 C5.2,0.7 6.5,2 6.5,3.6 L6.5,5.4 C6.5,7.1 5.2,8.3 3.6,8.3 Z M3.6,2.9 C3.2,2.9 2.8,3.3 2.8,3.7 L2.8,5.5 C2.8,5.9 3.2,6.3 3.6,6.3 C4,6.3 4.4,5.9 4.4,5.5 L4.4,3.7 C4.4,3.3 4.1,2.9 3.6,2.9 Z" id="XMLID_1150_"></path>
                    </g>
                    <g id="XMLID_478_" transform="translate(12.000000, 1.000000)" fill="#F684BC">
                        <path d="M28.6,23.8 L28.6,14.5 C28.6,7 22.4,0.8 14.9,0.8 L14.2,0.8 C6.7,0.8 0.5,7 0.5,14.5 L0.5,23.8 L28.6,23.8 Z" id="Shape"></path>
                    </g>
                    <g id="XMLID_517_" transform="translate(44.000000, 42.000000)" fill="#F684BC">
                        <circle id="Oval" cx="1" cy="1.3" r="1"></circle>
                    </g>
                    <g id="XMLID_513_" transform="translate(7.000000, 40.000000)" fill="#F684BC">
                        <circle id="Oval" cx="1.9" cy="1.4" r="1"></circle>
                    </g>
                    <g id="XMLID_512_" transform="translate(51.000000, 26.000000)" fill="#F684BC">
                        <circle id="Oval" cx="1.7" cy="1.3" r="1.3"></circle>
                    </g>
                    <g id="XMLID_511_" transform="translate(0.000000, 52.000000)" fill="#F684BC">
                        <circle id="Oval" cx="2" cy="2.2" r="1.3"></circle>
                    </g>
                    <g id="XMLID_510_" transform="translate(52.000000, 51.000000)" fill="#F684BC">
                        <circle id="Oval" cx="2" cy="1.9" r="1.9"></circle>
                    </g>
                    <g id="XMLID_509_" transform="translate(0.000000, 18.000000)" fill="#F684BC">
                        <circle id="Oval" cx="2" cy="2.6" r="1.9"></circle>
                    </g>
                    <g id="XMLID_507_" transform="translate(15.000000, 40.000000)" fill="#EE0979">
                        <path d="M29.6,20.8 L27.5,20.8 L27.5,18.1 C27.5,9.5 20.5,2.4 11.8,2.4 C8.1,2.4 4.4,3.8 1.6,6.2 L0.2,4.6 C3.4,1.8 7.5,0.3 11.7,0.3 C21.5,0.3 29.4,8.3 29.4,18 L29.4,20.8 L29.6,20.8 Z" id="XMLID_1149_"></path>
                    </g>
                    <g id="XMLID_506_" transform="translate(11.000000, 46.000000)" fill="#EE0979">
                        <path d="M2,4.7 L0.2,3.7 C0.7,2.7 1.3,1.8 2,0.9 L3.6,2.2 C3,3 2.5,3.9 2,4.7 Z" id="XMLID_1148_"></path>
                    </g>
                    <g id="XMLID_505_" transform="translate(9.000000, 54.000000)" fill="#EE0979">
                        <path d="M2.2,6.8 L0.1,6.8 L0.1,4.1 C0.1,2.7 0.3,1.4 0.6,0 L2.6,0.5 C2.3,1.7 2.2,2.9 2.2,4.1 L2.2,6.8 Z" id="XMLID_1147_"></path>
                    </g>
                    <g id="XMLID_500_" transform="translate(23.000000, 33.000000)" fill="#FFFFFF">
                        <path d="M7.2,11.5 L7.2,3.8 C7.2,1.8 5.6,0.2 3.6,0.2 C1.6,0.2 0,1.8 0,3.8 L0,11.5 L3.6,16.8 L7.2,11.5 Z" id="Shape"></path>
                    </g>
                    <g id="XMLID_493_" transform="translate(21.000000, 32.000000)" fill="#EE0979">
                        <path d="M5.6,19.6 L0.9,12.8 L0.9,4.8 C0.9,2.2 3,0.1 5.6,0.1 C8.2,0.1 10.3,2.2 10.3,4.8 L10.3,12.8 L5.6,19.6 Z M2.9,12.2 L5.5,16 L8.1,12.2 L8.1,4.8 C8.1,3.4 6.9,2.2 5.5,2.2 C4.1,2.2 2.9,3.4 2.9,4.8 L2.9,12.2 Z" id="XMLID_1144_"></path>
                    </g>
                    <g id="XMLID_502_" transform="translate(12.000000, 9.000000)" fill="#FFFFFF">
                        <path d="M28.6,11.2 L28.6,16.9 C28.6,24.6 22.3,30.9 14.6,30.9 C6.9,30.9 0.6,24.6 0.6,16.9 L0.6,11.2 L10,7.7 C10.2,7.7 11.8,6.2 12,6 L14.6,0.2 L15.9,1.7 C17.8,5.7 19.8,8.2 22.1,8.4 L28.6,11.2 Z" id="Shape"></path>
                    </g>
                    <g id="XMLID_501_" transform="translate(11.000000, 14.000000)" fill="#EE0979">
                        <path d="M15.6,27 C7.3,27 0.5,20.2 0.5,11.9 L0.5,3.4 L2.6,3.4 L2.6,11.9 C2.6,19.1 8.4,24.9 15.6,24.9 C22.8,24.9 28.6,19.1 28.6,11.9 L28.6,0.7 L30.7,0.7 L30.7,12 C30.6,20.3 23.9,27 15.6,27 Z" id="XMLID_1143_"></path>
                    </g>
                    <g id="XMLID_494_" transform="translate(25.000000, 20.000000)" fill="#EE0979">
                        <polygon id="XMLID_1142_" points="4 10 0.8 10 0.8 7.9 1.9 7.9 1.9 0.8 4 0.8"></polygon>
                    </g>
                    <g id="XMLID_491_" transform="translate(11.000000, 0.000000)" fill="#EE0979">
                        <path d="M30.6,24.8 L28.5,24.8 L28.5,15.5 C28.5,8.5 22.8,2.9 15.9,2.9 L15.2,2.9 C8.2,2.9 2.6,8.6 2.6,15.5 L2.6,24.8 L0.5,24.8 L0.5,15.5 C0.5,7.4 7.1,0.8 15.2,0.8 L15.9,0.8 C24,0.8 30.6,7.4 30.6,15.5 L30.6,24.8 Z" id="XMLID_1141_"></path>
                    </g>
                    <g id="XMLID_492_" transform="translate(12.000000, 7.000000)" fill="#EE0979">
                        <path d="M1.4,14.2 L0.6,12.3 L7.2,9.6 C10.9,8.1 13.3,4.5 13.3,0.5 L15.4,0.5 C15.4,5.3 12.5,9.7 8,11.5 L1.4,14.2 Z" id="XMLID_1140_"></path>
                    </g>
                    <g id="XMLID_499_" transform="translate(25.000000, 7.000000)" fill="#EE0979">
                        <path d="M14.7,14.2 L8.1,11.5 C3.6,9.6 0.7,5.3 0.7,0.5 L2.8,0.5 C2.8,4.5 5.2,8.1 8.9,9.6 L15.5,12.3 L14.7,14.2 Z" id="XMLID_1139_"></path>
                    </g>
                    <g id="XMLID_559_" transform="translate(29.000000, 20.000000)" fill="#EE0979">
                        <path d="M3.2,3.4 C2.1,3.4 1.1,3 0.3,2.2 L1.8,0.7 C2.5,1.4 3.8,1.4 4.6,0.7 L6.1,2.2 C5.3,3 4.3,3.4 3.2,3.4 Z" id="XMLID_1138_"></path>
                    </g>
                    <g id="XMLID_495_" transform="translate(18.000000, 20.000000)" fill="#EE0979">
                        <path d="M3.2,3.4 C2.1,3.4 1.1,3 0.3,2.2 L1.8,0.7 C2.5,1.4 3.8,1.4 4.6,0.7 L6.1,2.2 C5.3,3 4.3,3.4 3.2,3.4 Z" id="XMLID_1137_"></path>
                    </g>
                    <g id="XMLID_562_" transform="translate(20.000000, 31.000000)" fill="#EE0979">
                        <polygon id="XMLID_1136_" points="11.1 4.2 2 4.2 0.2 1.8 1.8 0.6 3 2.2 10.2 2.2 11.8 0.5 13.3 1.9"></polygon>
                    </g>
                </g>
            </g>
            <g id="favicon" transform="translate(278.000000, 289.000000)">
                <g id="Group-3" transform="translate(0.000000, 0.269189)">
                    <g id="Fill-1-Clipped">
                        <mask id="mask-2" fill="white">
                            <use xlink:href="#path-1"></use>
                        </mask>
                        <g id="path-1"></g>
                        <path d="M0.000100796813,25.3653802 C0.000100796813,39.2439446 11.2293697,50.4952515 25.0818757,50.4952515 C38.9338777,50.4952515 50.1631466,39.2439446 50.1631466,25.3653802 C50.1631466,11.4868158 38.9338777,0.235508911 25.0818757,0.235508911 C11.2293697,0.235508911 0.000100796813,11.4868158 0.000100796813,25.3653802" id="Fill-1" fill="#D3164D" fill-rule="nonzero" mask="url(#mask-2)"></path>
                    </g>
                </g>
                <path d="M27.323496,38.8436703 C28.2452829,32.6236901 33.1676952,27.6913337 39.3767789,26.7682842 C38.454992,32.9887693 33.5325797,37.9211257 27.323496,38.8436703 Z M25.0812709,33.002403 C23.7134582,30.1832644 21.6375478,27.7751554 19.0944442,25.9921752 C19.3287968,22.8407792 21.5261673,19.9696307 25.0812709,18.1533238 C28.6368785,19.9696307 30.834753,22.8402743 31.0686016,25.9921752 C28.524994,27.7756604 26.4485797,30.1837693 25.0812709,33.002403 Z M10.7862669,26.7682842 C16.9943426,27.6913337 21.917259,32.6236901 22.8385418,38.8436703 C16.6299622,37.9211257 11.7075498,32.9887693 10.7862669,26.7682842 Z M25.0817749,12.2696406 C31.3987112,12.2696406 36.620994,17.0434426 37.3512669,23.179096 C36.4461116,23.3921851 35.5656514,23.669403 34.7164382,24.0112545 C33.7855797,19.8706604 30.6099761,16.2925812 25.8720219,14.1940069 L25.0812709,13.8435713 L24.2905199,14.1940069 C19.5525657,16.2925812 16.3769622,19.8706604 15.4466076,24.0112545 C14.5978984,23.669403 13.7169343,23.3921851 12.8117789,23.179096 C13.5420518,17.0434426 18.7643347,12.2696406 25.0817749,12.2696406 Z M41.4874641,22.6948485 C41.4017869,22.6948485 41.3176215,22.699898 41.2324482,22.7009079 C40.2653028,14.6297792 33.3929761,8.35122475 25.0817749,8.35122475 C16.7695657,8.35122475 9.89774303,14.6297792 8.93110159,22.7009079 C8.8454243,22.699898 8.76125896,22.6948485 8.67608566,22.6948485 L6.72062749,22.6948485 L6.72062749,24.6535515 C6.72062749,34.7247891 14.8977689,42.9176109 24.9492271,42.9176109 L25.2133147,42.9176109 C35.2647729,42.9176109 43.4429223,34.7247891 43.4429223,24.6535515 L43.4429223,22.6948485 L41.4874641,22.6948485 Z" id="Fill-4" fill="#FFFFFF" fill-rule="nonzero"></path>
                <path d="M27.323496,38.8436703 C28.2452829,32.6236901 33.1676952,27.6913337 39.3767789,26.7682842 C38.454992,32.9887693 33.5325797,37.9211257 27.323496,38.8436703 Z M25.0812709,33.002403 C23.7134582,30.1832644 21.6375478,27.7751554 19.0944442,25.9921752 C19.3287968,22.8407792 21.5261673,19.9696307 25.0812709,18.1533238 C28.6368785,19.9696307 30.834753,22.8402743 31.0686016,25.9921752 C28.524994,27.7756604 26.4485797,30.1837693 25.0812709,33.002403 Z M10.7862669,26.7682842 C16.9943426,27.6913337 21.917259,32.6236901 22.8385418,38.8436703 C16.6299622,37.9211257 11.7075498,32.9887693 10.7862669,26.7682842 Z M25.0817749,12.2696406 C31.3987112,12.2696406 36.620994,17.0434426 37.3512669,23.179096 C36.4461116,23.3921851 35.5656514,23.669403 34.7164382,24.0112545 C33.7855797,19.8706604 30.6099761,16.2925812 25.8720219,14.1940069 L25.0812709,13.8435713 L24.2905199,14.1940069 C19.5525657,16.2925812 16.3769622,19.8706604 15.4466076,24.0112545 C14.5978984,23.669403 13.7169343,23.3921851 12.8117789,23.179096 C13.5420518,17.0434426 18.7643347,12.2696406 25.0817749,12.2696406 Z M41.4874641,22.6948485 C41.4017869,22.6948485 41.3176215,22.699898 41.2324482,22.7009079 C40.2653028,14.6297792 33.3929761,8.35122475 25.0817749,8.35122475 C16.7695657,8.35122475 9.89774303,14.6297792 8.93110159,22.7009079 C8.8454243,22.699898 8.76125896,22.6948485 8.67608566,22.6948485 L6.72062749,22.6948485 L6.72062749,24.6535515 C6.72062749,34.7247891 14.8977689,42.9176109 24.9492271,42.9176109 L25.2133147,42.9176109 C35.2647729,42.9176109 43.4429223,34.7247891 43.4429223,24.6535515 L43.4429223,22.6948485 L41.4874641,22.6948485 Z" id="Stroke-6" stroke="#D3164D"></path>
            </g>
        </g>
    </g>
</svg>