<?xml version="1.0" encoding="UTF-8"?>
<svg width="596px" height="596px" viewBox="0 0 596 596" version="1.1" xmlns="http://www.w3.org/2000/svg" xmlns:xlink="http://www.w3.org/1999/xlink">
    <!-- Generator: Sketch 51.2 (57519) - http://www.bohemiancoding.com/sketch -->
    <title>Group 2</title>
    <desc>Created with Sketch.</desc>
    <defs>
        <polygon id="path-1" points="0.000144277791 0.337534653 71.802151 0.337534653 71.802151 72.2772277 0.000144277791 72.2772277"></polygon>
    </defs>
    <g id="Page-1" stroke="none" stroke-width="1" fill="none" fill-rule="evenodd">
        <g id="Group-2">
            <g id="shape-5.1" fill-rule="nonzero">
                <g id="Layer_1" fill="#F6F9FC">
                    <circle id="Oval" cx="297.6" cy="297.9" r="297.6"></circle>
                </g>
                <g id="Layer_2" transform="translate(118.000000, 117.000000)">
                    <g id="Group" transform="translate(42.000000, 50.000000)">
                        <circle id="Oval" fill="#FDF0F6" cx="136" cy="135.9" r="131"></circle>
                        <path d="M136,271.7 C61.1,271.7 0.2,210.8 0.2,135.9 C0.2,61 61.1,0.1 136,0.1 C210.9,0.1 271.8,61 271.8,135.9 C271.8,210.8 210.9,271.7 136,271.7 Z M136,9.8 C66.5,9.8 9.9,66.4 9.9,135.9 C9.9,205.4 66.5,262 136,262 C205.5,262 262.1,205.4 262.1,135.9 C262.1,66.4 205.6,9.8 136,9.8 Z" id="Shape" fill="#EE0979"></path>
                    </g>
                    <g id="Group" transform="translate(136.000000, 0.000000)">
                        <circle id="Oval" fill="#FDF0F6" cx="47.7" cy="47" r="42.1"></circle>
                        <path d="M47.7,93.9 C21.8,93.9 0.8,72.9 0.8,47 C0.8,21.1 21.8,0.1 47.7,0.1 C73.6,0.1 94.6,21.1 94.6,47 C94.6,72.9 73.5,93.9 47.7,93.9 Z M47.7,9.7 C27.2,9.7 10.4,26.4 10.4,47 C10.4,67.6 27.1,84.3 47.7,84.3 C68.3,84.3 85,67.6 85,47 C85,26.4 68.2,9.7 47.7,9.7 Z" id="Shape" fill="#EE0979"></path>
                    </g>
                    <g id="Group" transform="translate(0.000000, 90.000000)">
                        <circle id="Oval" fill="#FDF0F6" cx="47.6" cy="47.6" r="42.1"></circle>
                        <path d="M47.6,94.6 C42.7,94.6 37.8,93.8 33.1,92.3 C8.5,84.3 -5,57.8 3,33.2 C9.3,13.8 27.2,0.8 47.6,0.8 C52.5,0.8 57.4,1.6 62.1,3.1 C74,7 83.7,15.3 89.4,26.4 C95.1,37.6 96.1,50.3 92.2,62.2 C86,81.5 68,94.6 47.6,94.6 Z M47.6,10.3 C31.4,10.3 17.2,20.7 12.2,36.1 C5.9,55.6 16.6,76.7 36.1,83.1 C39.8,84.3 43.7,84.9 47.6,84.9 C63.8,84.9 78,74.5 83,59.1 C86.1,49.6 85.3,39.5 80.8,30.7 C76.3,21.8 68.6,15.3 59.1,12.2 C55.4,11 51.5,10.3 47.6,10.3 Z" id="Shape" fill="#EE0979"></path>
                    </g>
                    <g id="Group" transform="translate(44.000000, 248.000000)">
                        <circle id="Oval" fill="#FDF0F6" cx="47.8" cy="47" r="42.1"></circle>
                        <path d="M47.8,93.9 C37.9,93.9 28.3,90.8 20.3,84.9 C-0.6,69.7 -5.3,40.3 9.9,19.4 C18.7,7.3 32.9,0.1 47.9,0.1 C57.8,0.1 67.4,3.2 75.4,9.1 C96.3,24.3 101,53.7 85.8,74.6 C77,86.7 62.8,93.9 47.8,93.9 Z M47.8,9.7 C35.9,9.7 24.6,15.4 17.6,25.1 C5.5,41.7 9.2,65.1 25.8,77.2 C32.2,81.9 39.8,84.3 47.7,84.3 C59.6,84.3 70.9,78.6 77.9,68.9 C90,52.3 86.3,28.9 69.7,16.8 C63.3,12.2 55.7,9.7 47.8,9.7 Z" id="Shape" fill="#EE0979"></path>
                    </g>
                    <g id="Group" transform="translate(208.000000, 254.000000)">
                        <circle id="Oval" fill="#FDF0F6" cx="47.1" cy="47.6" r="42.1"></circle>
                        <path d="M47.1,94.6 C32.1,94.6 17.9,87.4 9.1,75.3 C1.7,65.2 -1.2,52.8 0.7,40.4 C2.7,28 9.3,17.1 19.5,9.8 C27.6,3.9 37.1,0.8 47,0.8 C62,0.8 76.2,8 85,20.1 C100.2,41 95.6,70.4 74.6,85.6 C66.6,91.5 57.1,94.6 47.1,94.6 Z M47.1,10.4 C39.2,10.4 31.6,12.9 25.2,17.5 C17.1,23.4 11.9,32 10.3,41.8 C8.7,51.6 11.1,61.5 17,69.5 C24,79.1 35.3,84.9 47.2,84.9 C55.1,84.9 62.7,82.4 69.1,77.8 C85.7,65.7 89.4,42.4 77.3,25.8 C70.3,16.1 59,10.4 47.1,10.4 Z" id="Shape" fill="#EE0979"></path>
                    </g>
                    <g id="Group" transform="translate(264.000000, 101.000000)">
                        <circle id="Oval" fill="#FDF0F6" cx="47.9" cy="47.4" r="42.1"></circle>
                        <path d="M47.9,94.3 C27.5,94.3 9.6,81.3 3.3,61.9 C-0.6,50 0.4,37.3 6.1,26.1 C11.8,14.9 21.5,6.6 33.4,2.8 C38.1,1.3 43,0.5 47.9,0.5 C68.3,0.5 86.2,13.5 92.5,32.9 C96.4,44.8 95.4,57.5 89.7,68.7 C84,79.9 74.3,88.2 62.4,92 C57.7,93.5 52.8,94.3 47.9,94.3 Z M47.9,10.1 C44,10.1 40.1,10.7 36.4,11.9 C26.9,15 19.2,21.6 14.7,30.4 C10.2,39.3 9.4,49.4 12.5,58.8 C17.5,74.2 31.7,84.6 47.9,84.6 C51.8,84.6 55.7,84 59.4,82.8 C68.9,79.7 76.6,73.1 81.1,64.3 C85.6,55.4 86.4,45.3 83.3,35.9 C78.3,20.4 64.1,10.1 47.9,10.1 Z" id="Shape" fill="#EE0979"></path>
                    </g>
                    <g id="Group" transform="translate(167.000000, 27.000000)" fill="#00AFF0">
                        <path d="M16.6,19.8 C21.3,19.8 25.1,14 25.1,8.7 C25.1,3.3 21.4,0.5 16.6,0.5 C11.8,0.5 8.1,3.4 8.1,8.7 C8.1,14 11.9,19.8 16.6,19.8 Z" id="Shape"></path>
                        <path d="M28.5,22.3 L23.1,19.7 L19.5,27.2 L17.7,22.3 C17.3,22.4 17,22.4 16.6,22.4 C16.2,22.4 15.9,22.3 15.5,22.3 L13.6,27.4 L10,19.8 L4.7,22.3 C2.3,23.4 0.4,26.2 0.4,28.4 L0.4,32 L33,32 L33,28.4 C32.8,26.3 30.9,23.5 28.5,22.3 Z" id="Shape"></path>
                    </g>
                    <g id="Group" transform="translate(297.000000, 132.000000)" fill="#00AFF0">
                        <path d="M16.4,19.9 C21.1,19.9 24.9,14.1 24.9,8.8 C24.9,3.4 21.2,0.6 16.4,0.6 C11.6,0.6 7.9,3.5 7.9,8.8 C8,14.1 11.7,19.9 16.4,19.9 Z" id="Shape"></path>
                        <path d="M28.4,22.4 L23,19.8 L19.4,27.3 L17.6,22.4 C17.2,22.5 16.9,22.5 16.5,22.5 C16.1,22.5 15.8,22.4 15.4,22.4 L13.5,27.5 L9.9,19.9 L4.6,22.4 C2.2,23.5 0.3,26.3 0.3,28.5 L0.3,32.1 L32.9,32.1 L32.9,28.5 C32.7,26.4 30.7,23.6 28.4,22.4 Z" id="Shape"></path>
                    </g>
                    <g id="Group" transform="translate(238.000000, 285.000000)" fill="#00AFF0">
                        <path d="M17,20.2 C21.7,20.2 25.5,14.4 25.5,9.1 C25.5,3.7 21.8,0.9 17,0.9 C12.2,0.9 8.5,3.8 8.5,9.1 C8.6,14.3 12.3,20.2 17,20.2 Z" id="Shape"></path>
                        <path d="M29,22.7 L23.6,20.1 L20,27.6 L18.2,22.7 C17.8,22.8 17.5,22.8 17.1,22.8 C16.7,22.8 16.4,22.7 16,22.7 L14.1,27.8 L10.5,20.2 L5.2,22.7 C2.8,23.8 0.9,26.6 0.9,28.8 L0.9,32.4 L33.5,32.4 L33.5,28.8 C33.3,26.7 31.3,23.9 29,22.7 Z" id="Shape"></path>
                    </g>
                    <g id="Group" transform="translate(75.000000, 279.000000)" fill="#00AFF0">
                        <path d="M16.7,19.5 C21.4,19.5 25.2,13.7 25.2,8.4 C25.2,3 21.5,0.2 16.7,0.2 C12,0.2 8.2,3.1 8.2,8.4 C8.3,13.7 12,19.5 16.7,19.5 Z" id="Shape"></path>
                        <path d="M28.7,22 L23.3,19.4 L19.7,26.9 L17.9,22 C17.5,22.1 17.2,22.1 16.8,22.1 C16.4,22.1 16.1,22 15.7,22 L13.8,27.1 L10.2,19.5 L4.9,22 C2.5,23.1 0.6,25.9 0.6,28.1 L0.6,31.7 L33.2,31.7 L33.2,28.1 C33,26.1 31,23.3 28.7,22 Z" id="Shape"></path>
                    </g>
                    <g id="Group" transform="translate(31.000000, 121.000000)" fill="#00AFF0">
                        <path d="M16.6,20.2 C21.3,20.2 25.1,14.4 25.1,9.1 C25.1,3.7 21.4,0.9 16.6,0.9 C11.9,0.9 8.1,3.8 8.1,9.1 C8.1,14.3 11.8,20.2 16.6,20.2 Z" id="Shape"></path>
                        <path d="M28.5,22.7 L23.1,20.1 L19.5,27.6 L17.7,22.7 C17.3,22.8 17,22.8 16.6,22.8 C16.2,22.8 15.9,22.7 15.5,22.7 L13.6,27.8 L10,20.2 L4.7,22.7 C2.3,23.8 0.4,26.6 0.4,28.8 L0.4,32.4 L33,32.4 L33,28.8 C32.8,26.7 30.9,23.9 28.5,22.7 Z" id="Shape"></path>
                    </g>
                </g>
            </g>
            <g id="favicon" transform="translate(259.000000, 260.000000)">
                <g id="Group-3">
                    <g id="Fill-1-Clipped">
                        <mask id="mask-2" fill="white">
                            <use xlink:href="#path-1"></use>
                        </mask>
                        <g id="path-1"></g>
                        <path d="M0.000144277791,36.3073089 C0.000144277791,56.172705 16.0734115,72.2775169 35.9015084,72.2775169 C55.7288838,72.2775169 71.802151,56.172705 71.802151,36.3073089 C71.802151,16.4419128 55.7288838,0.33710099 35.9015084,0.33710099 C16.0734115,0.33710099 0.000144277791,16.4419128 0.000144277791,36.3073089" id="Fill-1" fill="#D3164D" fill-rule="nonzero" mask="url(#mask-2)"></path>
                    </g>
                </g>
                <path d="M39.7353974,55.2249361 C41.0657801,46.4077277 48.1701251,39.4158061 57.1314779,38.107326 C55.8010952,46.9252501 48.6967501,53.9171718 39.7353974,55.2249361 Z M36.4992726,46.9445768 C34.5251565,42.9482726 31.5290678,39.5346285 27.8586956,37.0071433 C28.1969285,32.5398437 31.3683163,28.4698123 36.4992726,25.8950844 C41.6309563,28.4698123 44.8030715,32.539128 45.140577,37.0071433 C41.4694774,39.5353444 38.4726614,42.9489884 36.4992726,46.9445768 Z M15.8677948,38.107326 C24.8276926,39.4158061 31.9327652,46.4077277 33.2624204,55.2249361 C24.3017952,53.9171718 17.19745,46.9252501 15.8677948,38.107326 Z M36.5,17.5545979 C45.6170126,17.5545979 53.1541502,24.3217589 54.2081274,33.0194288 C52.9017485,33.3214958 51.6310112,33.7144694 50.4053716,34.1990651 C49.0618962,28.3295157 44.4786589,23.2573662 37.6405358,20.2825067 L36.4992726,19.7857425 L35.3580094,20.2825067 C28.5198863,23.2573662 23.9366492,28.3295157 22.593901,34.1990651 C21.3689888,33.7144694 20.0975242,33.3214958 18.7911452,33.0194288 C19.8451224,24.3217589 27.3822602,17.5545979 36.5,17.5545979 Z M60.1777558,32.3329778 C60.0541009,32.3329778 59.9326279,32.3401358 59.8097003,32.3415674 C58.4138532,20.900241 48.4952652,12 36.5,12 C24.50328,12 14.5854194,20.900241 13.1902997,32.3415674 C13.0666447,32.3401358 12.9451718,32.3329778 12.8222442,32.3329778 L10,32.3329778 L10,35.109561 C10,49.3861661 21.8017814,61 36.3086984,61 L36.6898468,61 C51.1967638,61 63,49.3861661 63,35.109561 L63,32.3329778 L60.1777558,32.3329778 Z" id="Fill-4" fill="#FFFFFF" fill-rule="nonzero"></path>
                <path d="M39.7353974,55.2249361 C41.0657801,46.4077277 48.1701251,39.4158061 57.1314779,38.107326 C55.8010952,46.9252501 48.6967501,53.9171718 39.7353974,55.2249361 Z M36.4992726,46.9445768 C34.5251565,42.9482726 31.5290678,39.5346285 27.8586956,37.0071433 C28.1969285,32.5398437 31.3683163,28.4698123 36.4992726,25.8950844 C41.6309563,28.4698123 44.8030715,32.539128 45.140577,37.0071433 C41.4694774,39.5353444 38.4726614,42.9489884 36.4992726,46.9445768 Z M15.8677948,38.107326 C24.8276926,39.4158061 31.9327652,46.4077277 33.2624204,55.2249361 C24.3017952,53.9171718 17.19745,46.9252501 15.8677948,38.107326 Z M36.5,17.5545979 C45.6170126,17.5545979 53.1541502,24.3217589 54.2081274,33.0194288 C52.9017485,33.3214958 51.6310112,33.7144694 50.4053716,34.1990651 C49.0618962,28.3295157 44.4786589,23.2573662 37.6405358,20.2825067 L36.4992726,19.7857425 L35.3580094,20.2825067 C28.5198863,23.2573662 23.9366492,28.3295157 22.593901,34.1990651 C21.3689888,33.7144694 20.0975242,33.3214958 18.7911452,33.0194288 C19.8451224,24.3217589 27.3822602,17.5545979 36.5,17.5545979 Z M60.1777558,32.3329778 C60.0541009,32.3329778 59.9326279,32.3401358 59.8097003,32.3415674 C58.4138532,20.900241 48.4952652,12 36.5,12 C24.50328,12 14.5854194,20.900241 13.1902997,32.3415674 C13.0666447,32.3401358 12.9451718,32.3329778 12.8222442,32.3329778 L10,32.3329778 L10,35.109561 C10,49.3861661 21.8017814,61 36.3086984,61 L36.6898468,61 C51.1967638,61 63,49.3861661 63,35.109561 L63,32.3329778 L60.1777558,32.3329778 Z" id="Stroke-6" stroke="#D3164D"></path>
            </g>
        </g>
    </g>
</svg>